<svg width="32" height="16" viewBox="0 0 32 16" fill="none" xmlns="http://www.w3.org/2000/svg">
<rect width="32" height="16" rx="5" fill="url(#paint0_linear)"/>
<path fill-rule="evenodd" clip-rule="evenodd" d="M18.0253 3.70163C17.6362 3.51088 17.1436 3.50003 16.7361 3.50003H15.493V6.45035H17.4004C17.9446 6.45035 18.2031 6.31318 18.3419 6.16148C18.4937 5.99564 18.6435 5.66009 18.6435 4.97519C18.6435 4.52557 18.5491 4.24886 18.4449 4.0759C18.3422 3.90555 18.2012 3.78784 18.0253 3.70163ZM15.493 7.95035H17.4004C18.1849 7.95035 18.923 7.74837 19.4485 7.17421C19.961 6.61419 20.1435 5.83716 20.1435 4.97519C20.1435 4.31223 20.0025 3.75451 19.7296 3.30165C19.4551 2.84617 19.0771 2.54666 18.6855 2.35473C17.96 1.9991 17.1488 1.99972 16.767 2.00002C16.7563 2.00003 16.746 2.00003 16.7361 2.00003H14.743H13.993V2.75003V6.45035H12.75C12.3358 6.45035 12 6.78613 12 7.20035C12 7.61456 12.3358 7.95035 12.75 7.95035H13.993V8.67548H12.75C12.3358 8.67548 12 9.01126 12 9.42548C12 9.83969 12.3358 10.1755 12.75 10.1755H13.993V11.6507V12.2864C13.993 12.7006 14.3288 13.0364 14.743 13.0364C15.1573 13.0364 15.493 12.7006 15.493 12.2864V11.6507V10.1755H16.7361C17.1503 10.1755 17.4861 9.83969 17.4861 9.42548C17.4861 9.01126 17.1503 8.67548 16.7361 8.67548H15.493V7.95035Z" fill="white"/>
<defs>
<linearGradient id="paint0_linear" x1="-7.5" y1="-7.99999" x2="28.6937" y2="7.301" gradientUnits="userSpaceOnUse">
<stop stop-color="#355CFF"/>
<stop offset="1" stop-color="#A116E7"/>
</linearGradient>
</defs>
</svg>
