<?xml version="1.0" encoding="UTF-8"?><!DOCTYPE svg PUBLIC "-//W3C//DTD SVG 1.1//EN" "http://www.w3.org/Graphics/SVG/1.1/DTD/svg11.dtd"><svg xmlns="http://www.w3.org/2000/svg" xmlns:xlink="http://www.w3.org/1999/xlink"><symbol id="icon-config"><path d="M14.125 7.406l1-.562A.74.74 0 0015.469 6c-.344-1.313-1.063-2.5-2-3.469-.25-.219-.625-.281-.906-.125l-1 .594a5.542 5.542 0 00-1.032-.594V1.25c0-.313-.25-.656-.562-.719A7.766 7.766 0 006 .531a.733.733 0 00-.563.719v1.156A5.545 5.545 0 004.407 3l-1-.594c-.282-.156-.657-.094-.907.125C1.562 3.5.844 4.687.5 6a.74.74 0 00.344.844l1 .562c-.032.188-.032.438-.032.594 0 .188 0 .438.032.594l-1 .594a.74.74 0 00-.344.843c.344 1.313 1.063 2.5 2 3.469.25.219.625.281.906.125l1-.594c.25.188.719.469 1.032.594v1.156c0 .313.25.656.562.719a7.765 7.765 0 003.969 0 .733.733 0 00.562-.719v-1.156a5.54 5.54 0 001.031-.594l1 .594c.282.156.657.094.907-.125.937-.969 1.656-2.156 2-3.469a.74.74 0 00-.344-.844l-1-.593a7.518 7.518 0 000-1.188zm-1.656 2l1.375.781c-.188.563-.688 1.376-1.063 1.813l-1.375-.781c-1 .844-1.125.937-2.375 1.375v1.594c-.281.03-.75.093-1.031.093-.313 0-.781-.062-1.063-.094v-1.593c-1.25-.438-1.406-.531-2.375-1.375L3.188 12c-.374-.438-.874-1.25-1.062-1.813l1.375-.78c-.25-1.313-.25-1.47 0-2.782l-1.375-.781c.25-.657.594-1.282 1.063-1.813l1.374.782c1-.844 1.125-.938 2.375-1.375V1.843c.282-.032.75-.094 1.063-.094.281 0 .75.063 1.031.094v1.593c1.25.438 1.406.532 2.375 1.376l1.375-.782c.375.438.875 1.25 1.063 1.813l-1.375.781c.25 1.313.25 1.469 0 2.781zM8 5C6.344 5 5 6.375 5 8a3 3 0 003 3c1.625 0 3-1.344 3-3 0-1.625-1.375-3-3-3zm0 4.5A1.48 1.48 0 016.5 8 1.5 1.5 0 018 6.5c.813 0 1.5.688 1.5 1.5A1.5 1.5 0 018 9.5z" fill="#fff"/></symbol><symbol id="icon-delete"><path d="M8.375 13h.75a.38.38 0 00.375-.375v-6.75a.403.403 0 00-.375-.375h-.75A.38.38 0 008 5.875v6.75a.36.36 0 00.375.375zM13.5 2.5h-2.594L9.844.75C9.594.344 9.03 0 8.563 0H5.405c-.468 0-1.031.344-1.281.75L3.062 2.5H.5c-.281 0-.5.25-.5.5v.5c0 .281.219.5.5.5H1v10.5c0 .844.656 1.5 1.5 1.5h9a1.5 1.5 0 001.5-1.5V4h.5c.25 0 .5-.219.5-.5V3c0-.25-.25-.5-.5-.5zm-8.156-.906c.031-.032.125-.094.156-.094h2.969c.031 0 .125.063.156.094l.531.906H4.812l.532-.906zM11.5 14.5h-9V4h9v10.5zM4.875 13h.75A.38.38 0 006 12.625v-6.75a.403.403 0 00-.375-.375h-.75a.38.38 0 00-.375.375v6.75a.36.36 0 00.375.375z" fill="#EF0000"/></symbol><symbol id="icon-price"><path d="M13.438 11.75H4.062a.308.308 0 00-.312.313v1.25c0 .195.117.312.313.312h9.375a.308.308 0 00.312-.313v-1.25a.336.336 0 00-.313-.312zM15.624.734l-1.68 1.211L12.422.891a1.877 1.877 0 00-2.188 0L8.75 1.945 7.227.891C6.953.695 6.445.539 6.133.539c-.352 0-.82.156-1.094.352L3.516 1.945 1.836.735C1.055.187 0 .734 0 1.671v17.695c0 .899 1.055 1.485 1.836.938l1.68-1.25 1.523 1.093a1.877 1.877 0 002.188 0l1.523-1.093 1.484 1.093a1.877 1.877 0 002.188 0l1.523-1.093 1.68 1.25c.781.547 1.875 0 1.875-.938V1.672c0-.938-1.094-1.484-1.875-.938zm0 17.227l-1.68-1.211-2.617 1.875L8.71 16.75l-2.578 1.875-2.617-1.875-1.641 1.21V3.079l1.64 1.211 2.618-1.875L8.75 4.29l2.578-1.875 2.617 1.875 1.68-1.21v14.88zM13.437 7.375H4.063a.308.308 0 00-.313.313v1.25c0 .195.117.312.313.312h9.375a.308.308 0 00.312-.313v-1.25a.336.336 0 00-.313-.312z" fill="#fff"/></symbol><symbol id="icon-unban"><path d="M.375.25A.38.38 0 000 .625v6A.36.36 0 00.375 7h6a.38.38 0 00.375-.375v-.844c0-.218-.188-.375-.406-.375L2.406 5.5C3.375 3.375 5.5 1.875 8 1.875A6.135 6.135 0 0114.125 8 6.115 6.115 0 018 14.125c-1.594 0-3-.563-4.094-1.531-.156-.125-.375-.125-.5 0l-.625.625a.396.396 0 000 .562A7.872 7.872 0 008 15.75c4.25 0 7.719-3.438 7.75-7.719 0-4.25-3.469-7.75-7.75-7.75A7.642 7.642 0 001.531 3.72L1.594.656c0-.219-.157-.406-.375-.406H.375z" fill="#0EAD00"/></symbol><symbol id="icon-vip-cash"><path d="M13.734 5.031l2.149-3.164c.039-.117.078-.273.078-.43 0-.507-.39-.898-.899-.937H6.899a.95.95 0 00-.937.938c0 .156.078.312.117.43L8.266 5.03C.609 9.72 1 15.851 1 16.594 1 18.78 2.914 20.5 5.258 20.5h11.445c2.344 0 4.258-1.719 4.258-3.906 0-.742.352-6.914-7.227-11.563zm-.468-2.656L11.78 4.563h-1.6L8.695 2.374h4.57zm5.82 14.219c0 1.133-1.055 2.031-2.383 2.031H5.258c-1.328 0-2.383-.898-2.383-2.031-.04-3.164 1.25-6.836 6.68-10.157h2.89c5.352 3.32 6.68 6.993 6.64 10.157zm-6.953-3.946l-1.914-.546c-.235-.079-.352-.313-.352-.547 0-.313.195-.547.469-.547h1.21c.157 0 .392.078.548.156.039.04.117.04.195.04a.554.554 0 00.234-.079l.508-.469a.54.54 0 00.078-.234c0-.117-.039-.235-.117-.274-.312-.234-.937-.468-1.328-.468v-.703a.35.35 0 00-.351-.352h-.665a.35.35 0 00-.351.352v.703c-1.016 0-1.797.86-1.797 1.875 0 .86.547 1.601 1.328 1.836l1.914.546c.235.079.352.313.352.547 0 .313-.196.547-.469.547h-1.21c-.157 0-.392-.078-.548-.156-.039-.04-.117-.04-.195-.04a.419.419 0 00-.235.08l-.507.468a.555.555 0 00-.078.234c0 .117.039.235.117.274.312.234.937.468 1.328.468v.703c0 .196.156.313.351.313h.665c.195 0 .351-.117.351-.313v-.703c1.016 0 1.797-.859 1.797-1.875.039-.859-.547-1.601-1.328-1.836z"/></symbol><symbol id="icon-vip-check"><path d="M18.945 15.5h1.68a.642.642 0 00.625-.625v-1.64c0-.274-.195-.665-.39-.9l-9.024-9.023-2.813 2.813 9.024 9.023c.234.196.625.352.898.352zM8.125 5.227l2.813-2.813L9.296.774a1.235 1.235 0 00-.664-.235c-.195 0-.508.117-.664.234L6.523 2.258a1.108 1.108 0 00-.273.664c0 .234.117.508.273.664l1.602 1.64zM5.312 17.062h.625a.308.308 0 00.313-.312v-.625c.898 0 1.64-.781 1.64-1.758 0-.781-.507-1.484-1.21-1.68l-1.758-.546c-.234-.04-.352-.235-.352-.47 0-.312.196-.546.47-.546h1.093c.156.04.351.078.508.156.039.04.117.078.156.078.078 0 .156-.039.234-.117l.43-.43c.078-.039.117-.156.117-.234 0-.078-.039-.195-.117-.234-.313-.235-.86-.43-1.211-.43V9.25a.336.336 0 00-.313-.313h-.625A.308.308 0 005 9.25v.664c-.938 0-1.68.781-1.68 1.758 0 .781.508 1.445 1.211 1.68l1.758.546c.234.04.352.235.352.47 0 .312-.196.507-.47.507H5.079a.943.943 0 01-.469-.117.632.632 0 00-.195-.078c-.078 0-.156.039-.234.117l-.43.43c-.078.039-.117.156-.117.234 0 .078.039.195.117.234.313.235.86.43 1.25.43v.625c0 .195.117.313.313.313zM10 12.375h3.555L11.68 10.5H10a.642.642 0 00-.625.625v.625c0 .352.273.625.625.625zm-.625 2.5c0 .352.273.625.625.625h6.68l-1.875-1.875H10a.642.642 0 00-.625.625v.625zM23.75 5.5h-7.93l1.875 1.875h5.43v11.25H1.875V7.375h6.68l-.43-.39-.86-.86L6.68 5.5H1.25C.547 5.5 0 6.086 0 6.75v12.5c0 .703.547 1.25 1.25 1.25h22.5c.664 0 1.25-.547 1.25-1.25V6.75c0-.664-.586-1.25-1.25-1.25z"/></symbol><symbol id="icon-vip-diamond"><path d="M18.875.5H5.125a.43.43 0 00-.39.234L.827 6.477a.47.47 0 000 .546l10.781 13.32a.48.48 0 00.743 0l10.78-13.32a.55.55 0 00.04-.546L19.266.734C19.148.578 19.03.5 18.875.5zm-.781 1.875l2.5 3.75h-2.696l-2.03-3.75h2.226zm-7.89 0h3.554l2.031 3.75H8.211l1.992-3.75zm-4.337 0h2.227l-2.031 3.75H3.405l2.461-3.75zM4.187 8H6.18l2.695 6.25L4.187 8zm4.024 0h7.539L12 17.531 8.21 8zm6.914 6.25L17.781 8h1.992l-4.648 6.25z"/></symbol><symbol id="icon-vip-dollar"><path d="M12.5 5.79c-1.758 0-3.125 1.679-3.125 3.75 0 2.108 1.367 3.788 3.125 3.788 1.719 0 3.125-1.68 3.125-3.789 0-2.07-1.406-3.75-3.125-3.75zm11.758-4.142a11.903 11.903 0 00-4.57-.898c-4.805 0-9.61 2.46-14.415 2.46-1.21 0-2.421-.155-3.632-.546a1.388 1.388 0 00-.391-.078c-.664 0-1.25.547-1.25 1.25v12.422c0 .469.273.937.703 1.133 1.524.625 3.047.859 4.57.859 4.805 0 9.61-2.422 14.415-2.422 1.21 0 2.421.156 3.632.547.117.04.274.04.39.04.665 0 1.29-.509 1.29-1.212V2.781c0-.469-.313-.937-.742-1.133zm-1.133 10.47a2.497 2.497 0 00-2.148 1.913c-.43-.039-.82-.078-1.29-.078-2.617 0-5.195.664-7.656 1.29-2.383.585-4.61 1.132-6.758 1.132h-.937a2.467 2.467 0 00-2.461-2.422V7.04c1.21 0 2.188-.86 2.422-2.031.312.039.625.078.976.078 2.618 0 5.196-.664 7.657-1.29 2.383-.585 4.61-1.171 6.758-1.171.43 0 .82.04 1.25.078a2.516 2.516 0 002.187 2.422v6.992z"/></symbol><symbol id="icon-vip-home"><path d="M22.516 9.188L20.25 7.312v-3.75a.336.336 0 00-.313-.312h-1.25c-.195.04-.312.156-.312.313v2.226l-5.508-4.531C12.555.984 11.93.789 11.5.789c-.469 0-1.094.195-1.406.469L.445 9.188a.72.72 0 00-.195.468c0 .117.04.313.117.39l.43.509c.078.117.312.195.469.195.117 0 .312-.04.39-.117l1.094-.899V17c0 .703.547 1.25 1.25 1.25h5c.664 0 1.21-.547 1.25-1.25v-4.063h2.5V17c0 .703.547 1.25 1.25 1.25h5c.664 0 1.21-.547 1.25-1.21V9.733l1.055.899a.694.694 0 00.39.156c.157 0 .39-.117.508-.234l.39-.508a.694.694 0 00.157-.39c0-.157-.117-.352-.234-.47zm-4.18 7.187h-3.711v-4.063a1.344 1.344 0 00-1.25-1.25h-3.75c-.703.04-1.25.586-1.25 1.25v4.063h-3.75V8.211L11.5 2.547l6.875 5.664-.04 8.164z"/></symbol><symbol id="icon-wallet"><path d="M17.5 3.875V3.25c0-1.367-1.133-2.5-2.5-2.5H3.75C1.64.75 0 2.43 0 4.5v10c0 2.11 1.64 3.75 3.75 3.75H17.5c1.367 0 2.5-1.094 2.5-2.5V6.375c0-1.367-1.133-2.5-2.5-2.5zm.625 11.875a.642.642 0 01-.625.625H3.75A1.851 1.851 0 011.875 14.5v-10c0-1.016.82-1.875 1.875-1.875H15c.313 0 .625.313.625.625V4.5H4.375a.642.642 0 00-.625.625c0 .352.273.625.625.625H17.5c.313 0 .625.313.625.625v9.375zM15 9.5c-.703 0-1.25.586-1.25 1.25 0 .703.547 1.25 1.25 1.25.664 0 1.25-.547 1.25-1.25 0-.664-.586-1.25-1.25-1.25z" fill="#fff"/></symbol></svg>